<mxfile host="app.diagrams.net" modified="2022-12-09T05:51:22.630Z" agent="5.0 (Macintosh; Intel Mac OS X 10_15_7) AppleWebKit/537.36 (KHTML, like Gecko) Chrome/108.0.0.0 Safari/537.36" version="20.6.2" etag="YDAAHfsndyI4o8ubYDg8" type="github">
  <diagram id="FA840VcqqAC4RkQ2DiHe" name="페이지-1">
    <mxGraphModel dx="872" dy="578" grid="1" gridSize="10" guides="1" tooltips="1" connect="1" arrows="1" fold="1" page="1" pageScale="1" pageWidth="827" pageHeight="1169" math="0" shadow="0">
      <root>
        <mxCell id="0" />
        <mxCell id="1" parent="0" />
        <mxCell id="p307Y76RXilBDxocOR-L-5" value="인사" style="swimlane;fontStyle=0;childLayout=stackLayout;horizontal=1;startSize=30;horizontalStack=0;resizeParent=1;resizeParentMax=0;resizeLast=0;collapsible=1;marginBottom=0;whiteSpace=wrap;html=1;" vertex="1" parent="1">
          <mxGeometry x="30" y="30" width="140" height="150" as="geometry" />
        </mxCell>
        <mxCell id="p307Y76RXilBDxocOR-L-6" value="안녕!!! 00 야!!!&amp;nbsp;" style="text;strokeColor=none;fillColor=none;align=left;verticalAlign=middle;spacingLeft=4;spacingRight=4;overflow=hidden;points=[[0,0.5],[1,0.5]];portConstraint=eastwest;rotatable=0;whiteSpace=wrap;html=1;" vertex="1" parent="p307Y76RXilBDxocOR-L-5">
          <mxGeometry y="30" width="140" height="30" as="geometry" />
        </mxCell>
        <mxCell id="p307Y76RXilBDxocOR-L-7" value="헤이 거기 아름다운 분!" style="text;strokeColor=none;fillColor=none;align=left;verticalAlign=middle;spacingLeft=4;spacingRight=4;overflow=hidden;points=[[0,0.5],[1,0.5]];portConstraint=eastwest;rotatable=0;whiteSpace=wrap;html=1;" vertex="1" parent="p307Y76RXilBDxocOR-L-5">
          <mxGeometry y="60" width="140" height="30" as="geometry" />
        </mxCell>
        <mxCell id="p307Y76RXilBDxocOR-L-8" value="Item 3" style="text;strokeColor=none;fillColor=none;align=left;verticalAlign=middle;spacingLeft=4;spacingRight=4;overflow=hidden;points=[[0,0.5],[1,0.5]];portConstraint=eastwest;rotatable=0;whiteSpace=wrap;html=1;" vertex="1" parent="p307Y76RXilBDxocOR-L-5">
          <mxGeometry y="90" width="140" height="30" as="geometry" />
        </mxCell>
        <mxCell id="p307Y76RXilBDxocOR-L-9" style="text;strokeColor=none;fillColor=none;align=left;verticalAlign=middle;spacingLeft=4;spacingRight=4;overflow=hidden;points=[[0,0.5],[1,0.5]];portConstraint=eastwest;rotatable=0;whiteSpace=wrap;html=1;" vertex="1" parent="p307Y76RXilBDxocOR-L-5">
          <mxGeometry y="120" width="140" height="30" as="geometry" />
        </mxCell>
        <mxCell id="p307Y76RXilBDxocOR-L-10" value="외모칭찬" style="swimlane;fontStyle=0;childLayout=stackLayout;horizontal=1;startSize=30;horizontalStack=0;resizeParent=1;resizeParentMax=0;resizeLast=0;collapsible=1;marginBottom=0;whiteSpace=wrap;html=1;" vertex="1" parent="1">
          <mxGeometry x="30" y="230" width="140" height="120" as="geometry" />
        </mxCell>
        <mxCell id="p307Y76RXilBDxocOR-L-11" value="오늘도 잘생긴하루" style="text;strokeColor=none;fillColor=none;align=left;verticalAlign=middle;spacingLeft=4;spacingRight=4;overflow=hidden;points=[[0,0.5],[1,0.5]];portConstraint=eastwest;rotatable=0;whiteSpace=wrap;html=1;" vertex="1" parent="p307Y76RXilBDxocOR-L-10">
          <mxGeometry y="30" width="140" height="30" as="geometry" />
        </mxCell>
        <mxCell id="p307Y76RXilBDxocOR-L-12" value="Item 2" style="text;strokeColor=none;fillColor=none;align=left;verticalAlign=middle;spacingLeft=4;spacingRight=4;overflow=hidden;points=[[0,0.5],[1,0.5]];portConstraint=eastwest;rotatable=0;whiteSpace=wrap;html=1;" vertex="1" parent="p307Y76RXilBDxocOR-L-10">
          <mxGeometry y="60" width="140" height="30" as="geometry" />
        </mxCell>
        <mxCell id="p307Y76RXilBDxocOR-L-13" value="Item 3" style="text;strokeColor=none;fillColor=none;align=left;verticalAlign=middle;spacingLeft=4;spacingRight=4;overflow=hidden;points=[[0,0.5],[1,0.5]];portConstraint=eastwest;rotatable=0;whiteSpace=wrap;html=1;" vertex="1" parent="p307Y76RXilBDxocOR-L-10">
          <mxGeometry y="90" width="140" height="30" as="geometry" />
        </mxCell>
        <mxCell id="p307Y76RXilBDxocOR-L-14" value="능력칭찬" style="swimlane;fontStyle=0;childLayout=stackLayout;horizontal=1;startSize=30;horizontalStack=0;resizeParent=1;resizeParentMax=0;resizeLast=0;collapsible=1;marginBottom=0;whiteSpace=wrap;html=1;" vertex="1" parent="1">
          <mxGeometry x="30" y="400" width="140" height="120" as="geometry" />
        </mxCell>
        <mxCell id="p307Y76RXilBDxocOR-L-15" value="Item 1" style="text;strokeColor=none;fillColor=none;align=left;verticalAlign=middle;spacingLeft=4;spacingRight=4;overflow=hidden;points=[[0,0.5],[1,0.5]];portConstraint=eastwest;rotatable=0;whiteSpace=wrap;html=1;" vertex="1" parent="p307Y76RXilBDxocOR-L-14">
          <mxGeometry y="30" width="140" height="30" as="geometry" />
        </mxCell>
        <mxCell id="p307Y76RXilBDxocOR-L-16" value="Item 2" style="text;strokeColor=none;fillColor=none;align=left;verticalAlign=middle;spacingLeft=4;spacingRight=4;overflow=hidden;points=[[0,0.5],[1,0.5]];portConstraint=eastwest;rotatable=0;whiteSpace=wrap;html=1;" vertex="1" parent="p307Y76RXilBDxocOR-L-14">
          <mxGeometry y="60" width="140" height="30" as="geometry" />
        </mxCell>
        <mxCell id="p307Y76RXilBDxocOR-L-17" value="Item 3" style="text;strokeColor=none;fillColor=none;align=left;verticalAlign=middle;spacingLeft=4;spacingRight=4;overflow=hidden;points=[[0,0.5],[1,0.5]];portConstraint=eastwest;rotatable=0;whiteSpace=wrap;html=1;" vertex="1" parent="p307Y76RXilBDxocOR-L-14">
          <mxGeometry y="90" width="140" height="30" as="geometry" />
        </mxCell>
        <mxCell id="p307Y76RXilBDxocOR-L-18" value="플러팅" style="swimlane;fontStyle=0;childLayout=stackLayout;horizontal=1;startSize=30;horizontalStack=0;resizeParent=1;resizeParentMax=0;resizeLast=0;collapsible=1;marginBottom=0;whiteSpace=wrap;html=1;" vertex="1" parent="1">
          <mxGeometry x="30" y="570" width="240" height="510" as="geometry" />
        </mxCell>
        <mxCell id="p307Y76RXilBDxocOR-L-19" value="오늘이 몇일이게?" style="text;strokeColor=none;fillColor=none;align=left;verticalAlign=middle;spacingLeft=4;spacingRight=4;overflow=hidden;points=[[0,0.5],[1,0.5]];portConstraint=eastwest;rotatable=0;whiteSpace=wrap;html=1;" vertex="1" parent="p307Y76RXilBDxocOR-L-18">
          <mxGeometry y="30" width="240" height="30" as="geometry" />
        </mxCell>
        <mxCell id="p307Y76RXilBDxocOR-L-20" value="오늘부터 나랑 1일이야" style="text;strokeColor=none;fillColor=none;align=left;verticalAlign=middle;spacingLeft=4;spacingRight=4;overflow=hidden;points=[[0,0.5],[1,0.5]];portConstraint=eastwest;rotatable=0;whiteSpace=wrap;html=1;" vertex="1" parent="p307Y76RXilBDxocOR-L-18">
          <mxGeometry y="60" width="240" height="30" as="geometry" />
        </mxCell>
        <mxCell id="p307Y76RXilBDxocOR-L-21" value="&lt;span style=&quot;font-family: -apple-system, &amp;quot;system-ui&amp;quot;, &amp;quot;Helvetica Neue&amp;quot;, &amp;quot;Apple SD Gothic Neo&amp;quot;, sans-serif; font-size: 13px; background-color: rgb(255, 255, 255);&quot;&gt;00 좋-아! (좋은 아침)&lt;/span&gt;&lt;div style=&quot;position: absolute; opacity: 0; font-family: -apple-system, &amp;quot;system-ui&amp;quot;, &amp;quot;Helvetica Neue&amp;quot;, &amp;quot;Apple SD Gothic Neo&amp;quot;, sans-serif; font-size: 13px; background-color: rgb(255, 255, 255);&quot; class=&quot;instiz-stub-extra&quot;&gt;&lt;p&gt;&lt;a style=&quot;margin: 0px; padding: 0px; cursor: pointer; color: rgb(0, 0, 0);&quot; target=&quot;_blank&quot; href=&quot;https://instiz.net/name/39216082&quot;&gt;https://instiz.net/name/39216082&lt;/a&gt;&lt;/p&gt;&lt;/div&gt;&lt;span style=&quot;font-family: -apple-system, &amp;quot;system-ui&amp;quot;, &amp;quot;Helvetica Neue&amp;quot;, &amp;quot;Apple SD Gothic Neo&amp;quot;, sans-serif; font-size: 13px; background-color: rgb(255, 255, 255);&quot;&gt;&lt;/span&gt;" style="text;strokeColor=none;fillColor=none;align=left;verticalAlign=middle;spacingLeft=4;spacingRight=4;overflow=hidden;points=[[0,0.5],[1,0.5]];portConstraint=eastwest;rotatable=0;whiteSpace=wrap;html=1;" vertex="1" parent="p307Y76RXilBDxocOR-L-18">
          <mxGeometry y="90" width="240" height="30" as="geometry" />
        </mxCell>
        <mxCell id="p307Y76RXilBDxocOR-L-22" value="&lt;span style=&quot;font-family: -apple-system, &amp;quot;system-ui&amp;quot;, &amp;quot;Helvetica Neue&amp;quot;, &amp;quot;Apple SD Gothic Neo&amp;quot;, sans-serif; font-size: 13px; background-color: rgb(255, 255, 255);&quot;&gt;너 나 좋아해?&lt;/span&gt;&lt;div style=&quot;position: absolute; opacity: 0; font-family: -apple-system, &amp;quot;system-ui&amp;quot;, &amp;quot;Helvetica Neue&amp;quot;, &amp;quot;Apple SD Gothic Neo&amp;quot;, sans-serif; font-size: 13px; background-color: rgb(255, 255, 255);&quot; class=&quot;instiz-stub-extra&quot;&gt;&lt;p&gt;&lt;a style=&quot;margin: 0px; padding: 0px; cursor: pointer; color: rgb(0, 0, 0);&quot; target=&quot;_blank&quot; href=&quot;https://instiz.net/name/39216082&quot;&gt;https://instiz.net/name/39216082&lt;/a&gt;&lt;/p&gt;&lt;/div&gt;&lt;span style=&quot;font-family: -apple-system, &amp;quot;system-ui&amp;quot;, &amp;quot;Helvetica Neue&amp;quot;, &amp;quot;Apple SD Gothic Neo&amp;quot;, sans-serif; font-size: 13px; background-color: rgb(255, 255, 255);&quot;&gt;&lt;/span&gt;" style="text;strokeColor=none;fillColor=none;align=left;verticalAlign=middle;spacingLeft=4;spacingRight=4;overflow=hidden;points=[[0,0.5],[1,0.5]];portConstraint=eastwest;rotatable=0;whiteSpace=wrap;html=1;" vertex="1" parent="p307Y76RXilBDxocOR-L-18">
          <mxGeometry y="120" width="240" height="30" as="geometry" />
        </mxCell>
        <mxCell id="p307Y76RXilBDxocOR-L-23" value="&lt;span style=&quot;font-family: -apple-system, &amp;quot;system-ui&amp;quot;, &amp;quot;Helvetica Neue&amp;quot;, &amp;quot;Apple SD Gothic Neo&amp;quot;, sans-serif; font-size: 13px; background-color: rgb(255, 255, 255);&quot;&gt;(숨 들이마시기) 너 정말 귀엽다!ㅠ&lt;/span&gt;&lt;div style=&quot;position: absolute; opacity: 0; font-family: -apple-system, &amp;quot;system-ui&amp;quot;, &amp;quot;Helvetica Neue&amp;quot;, &amp;quot;Apple SD Gothic Neo&amp;quot;, sans-serif; font-size: 13px; background-color: rgb(255, 255, 255);&quot; class=&quot;instiz-stub-extra&quot;&gt;&lt;p&gt;&lt;a style=&quot;margin: 0px; padding: 0px; cursor: pointer; color: rgb(0, 0, 0);&quot; target=&quot;_blank&quot; href=&quot;https://instiz.net/name/39216082&quot;&gt;https://instiz.net/name/39216082&lt;/a&gt;&lt;/p&gt;&lt;/div&gt;&lt;span style=&quot;font-family: -apple-system, &amp;quot;system-ui&amp;quot;, &amp;quot;Helvetica Neue&amp;quot;, &amp;quot;Apple SD Gothic Neo&amp;quot;, sans-serif; font-size: 13px; background-color: rgb(255, 255, 255);&quot;&gt;&lt;/span&gt;" style="text;strokeColor=none;fillColor=none;align=left;verticalAlign=middle;spacingLeft=4;spacingRight=4;overflow=hidden;points=[[0,0.5],[1,0.5]];portConstraint=eastwest;rotatable=0;whiteSpace=wrap;html=1;" vertex="1" parent="p307Y76RXilBDxocOR-L-18">
          <mxGeometry y="150" width="240" height="30" as="geometry" />
        </mxCell>
        <mxCell id="p307Y76RXilBDxocOR-L-24" value="&lt;span style=&quot;font-family: -apple-system, &amp;quot;system-ui&amp;quot;, &amp;quot;Helvetica Neue&amp;quot;, &amp;quot;Apple SD Gothic Neo&amp;quot;, sans-serif; font-size: 13px; background-color: rgb(255, 255, 255);&quot;&gt;넌 바보야! 바라볼수록.... 보고싶은 사람....&lt;/span&gt;&lt;div style=&quot;position: absolute; opacity: 0; font-family: -apple-system, &amp;quot;system-ui&amp;quot;, &amp;quot;Helvetica Neue&amp;quot;, &amp;quot;Apple SD Gothic Neo&amp;quot;, sans-serif; font-size: 13px; background-color: rgb(255, 255, 255);&quot; class=&quot;instiz-stub-extra&quot;&gt;&lt;p&gt;&lt;a style=&quot;margin: 0px; padding: 0px; cursor: pointer; color: rgb(0, 0, 0);&quot; target=&quot;_blank&quot; href=&quot;https://instiz.net/name/39216082&quot;&gt;https://instiz.net/name/39216082&lt;/a&gt;&lt;/p&gt;&lt;/div&gt;&lt;span style=&quot;font-family: -apple-system, &amp;quot;system-ui&amp;quot;, &amp;quot;Helvetica Neue&amp;quot;, &amp;quot;Apple SD Gothic Neo&amp;quot;, sans-serif; font-size: 13px; background-color: rgb(255, 255, 255);&quot;&gt;&lt;/span&gt;" style="text;strokeColor=none;fillColor=none;align=left;verticalAlign=middle;spacingLeft=4;spacingRight=4;overflow=hidden;points=[[0,0.5],[1,0.5]];portConstraint=eastwest;rotatable=0;whiteSpace=wrap;html=1;" vertex="1" parent="p307Y76RXilBDxocOR-L-18">
          <mxGeometry y="180" width="240" height="30" as="geometry" />
        </mxCell>
        <mxCell id="p307Y76RXilBDxocOR-L-25" value="&lt;span style=&quot;font-family: -apple-system, &amp;quot;system-ui&amp;quot;, &amp;quot;Helvetica Neue&amp;quot;, &amp;quot;Apple SD Gothic Neo&amp;quot;, sans-serif; font-size: 13px; background-color: rgb(255, 255, 255);&quot;&gt;밤마다 내 머리속에 떠오르지....? 00는 달인가&lt;/span&gt;&lt;div style=&quot;position: absolute; opacity: 0; font-family: -apple-system, &amp;quot;system-ui&amp;quot;, &amp;quot;Helvetica Neue&amp;quot;, &amp;quot;Apple SD Gothic Neo&amp;quot;, sans-serif; font-size: 13px; background-color: rgb(255, 255, 255);&quot; class=&quot;instiz-stub-extra&quot;&gt;&lt;p&gt;&lt;a style=&quot;margin: 0px; padding: 0px; cursor: pointer; color: rgb(0, 0, 0);&quot; target=&quot;_blank&quot; href=&quot;https://instiz.net/name/39216082&quot;&gt;https://instiz.net/name/39216082&lt;/a&gt;&lt;/p&gt;&lt;/div&gt;&lt;span style=&quot;font-family: -apple-system, &amp;quot;system-ui&amp;quot;, &amp;quot;Helvetica Neue&amp;quot;, &amp;quot;Apple SD Gothic Neo&amp;quot;, sans-serif; font-size: 13px; background-color: rgb(255, 255, 255);&quot;&gt;&lt;/span&gt;" style="text;strokeColor=none;fillColor=none;align=left;verticalAlign=middle;spacingLeft=4;spacingRight=4;overflow=hidden;points=[[0,0.5],[1,0.5]];portConstraint=eastwest;rotatable=0;whiteSpace=wrap;html=1;" vertex="1" parent="p307Y76RXilBDxocOR-L-18">
          <mxGeometry y="210" width="240" height="30" as="geometry" />
        </mxCell>
        <mxCell id="p307Y76RXilBDxocOR-L-26" value="&lt;span style=&quot;font-family: -apple-system, &amp;quot;system-ui&amp;quot;, &amp;quot;Helvetica Neue&amp;quot;, &amp;quot;Apple SD Gothic Neo&amp;quot;, sans-serif; font-size: 13px; background-color: rgb(255, 255, 255);&quot;&gt;넌 4위야 우리 엄마 사위&lt;/span&gt;" style="text;strokeColor=none;fillColor=none;align=left;verticalAlign=middle;spacingLeft=4;spacingRight=4;overflow=hidden;points=[[0,0.5],[1,0.5]];portConstraint=eastwest;rotatable=0;whiteSpace=wrap;html=1;" vertex="1" parent="p307Y76RXilBDxocOR-L-18">
          <mxGeometry y="240" width="240" height="30" as="geometry" />
        </mxCell>
        <mxCell id="p307Y76RXilBDxocOR-L-27" value="&lt;span style=&quot;font-family: -apple-system, &amp;quot;system-ui&amp;quot;, &amp;quot;Helvetica Neue&amp;quot;, &amp;quot;Apple SD Gothic Neo&amp;quot;, sans-serif; font-size: 13px; background-color: rgb(255, 255, 255);&quot;&gt;너 신고할거야 혼인신고&lt;/span&gt;" style="text;strokeColor=none;fillColor=none;align=left;verticalAlign=middle;spacingLeft=4;spacingRight=4;overflow=hidden;points=[[0,0.5],[1,0.5]];portConstraint=eastwest;rotatable=0;whiteSpace=wrap;html=1;" vertex="1" parent="p307Y76RXilBDxocOR-L-18">
          <mxGeometry y="270" width="240" height="30" as="geometry" />
        </mxCell>
        <mxCell id="p307Y76RXilBDxocOR-L-28" value="&lt;span style=&quot;font-family: -apple-system, &amp;quot;system-ui&amp;quot;, &amp;quot;Helvetica Neue&amp;quot;, &amp;quot;Apple SD Gothic Neo&amp;quot;, sans-serif; font-size: 13px; background-color: rgb(255, 255, 255);&quot;&gt;어디서 타는 냄새 나지 않아? 내마음 타는냄새&lt;/span&gt;" style="text;strokeColor=none;fillColor=none;align=left;verticalAlign=middle;spacingLeft=4;spacingRight=4;overflow=hidden;points=[[0,0.5],[1,0.5]];portConstraint=eastwest;rotatable=0;whiteSpace=wrap;html=1;" vertex="1" parent="p307Y76RXilBDxocOR-L-18">
          <mxGeometry y="300" width="240" height="30" as="geometry" />
        </mxCell>
        <mxCell id="p307Y76RXilBDxocOR-L-29" value="&lt;span style=&quot;font-family: -apple-system, &amp;quot;system-ui&amp;quot;, &amp;quot;Helvetica Neue&amp;quot;, &amp;quot;Apple SD Gothic Neo&amp;quot;, sans-serif; font-size: 13px; background-color: rgb(255, 255, 255);&quot;&gt;너희 부모님은 도둑이신가봐.. 저 하늘에 별을or보석을 훔쳐다가 네 눈에 박아두셨네&lt;/span&gt;" style="text;strokeColor=none;fillColor=none;align=left;verticalAlign=middle;spacingLeft=4;spacingRight=4;overflow=hidden;points=[[0,0.5],[1,0.5]];portConstraint=eastwest;rotatable=0;whiteSpace=wrap;html=1;" vertex="1" parent="p307Y76RXilBDxocOR-L-18">
          <mxGeometry y="330" width="240" height="30" as="geometry" />
        </mxCell>
        <mxCell id="p307Y76RXilBDxocOR-L-30" value="&lt;span style=&quot;font-family: -apple-system, &amp;quot;system-ui&amp;quot;, &amp;quot;Helvetica Neue&amp;quot;, &amp;quot;Apple SD Gothic Neo&amp;quot;, sans-serif; font-size: 13px; background-color: rgb(255, 255, 255);&quot;&gt;너 여기 올 때 뭐 타고 왔어? 차? 그럴 리가 없는데... 넌 백마 탄 공주잖아!!&lt;/span&gt;" style="text;strokeColor=none;fillColor=none;align=left;verticalAlign=middle;spacingLeft=4;spacingRight=4;overflow=hidden;points=[[0,0.5],[1,0.5]];portConstraint=eastwest;rotatable=0;whiteSpace=wrap;html=1;" vertex="1" parent="p307Y76RXilBDxocOR-L-18">
          <mxGeometry y="360" width="240" height="30" as="geometry" />
        </mxCell>
        <mxCell id="p307Y76RXilBDxocOR-L-31" value="&lt;span style=&quot;font-family: -apple-system, &amp;quot;system-ui&amp;quot;, &amp;quot;Helvetica Neue&amp;quot;, &amp;quot;Apple SD Gothic Neo&amp;quot;, sans-serif; font-size: 13px; background-color: rgb(255, 255, 255);&quot;&gt;너는 도둑이야 내 마음을 훔쳐간 도둑..&lt;/span&gt;" style="text;strokeColor=none;fillColor=none;align=left;verticalAlign=middle;spacingLeft=4;spacingRight=4;overflow=hidden;points=[[0,0.5],[1,0.5]];portConstraint=eastwest;rotatable=0;whiteSpace=wrap;html=1;" vertex="1" parent="p307Y76RXilBDxocOR-L-18">
          <mxGeometry y="390" width="240" height="30" as="geometry" />
        </mxCell>
        <mxCell id="p307Y76RXilBDxocOR-L-32" value="&lt;span style=&quot;font-family: -apple-system, &amp;quot;system-ui&amp;quot;, &amp;quot;Helvetica Neue&amp;quot;, &amp;quot;Apple SD Gothic Neo&amp;quot;, sans-serif; font-size: 13px; background-color: rgb(255, 255, 255);&quot;&gt;너 얼굴에 김 묻었어.. (어디?? 화들짝) 잘생김...&lt;/span&gt;" style="text;strokeColor=none;fillColor=none;align=left;verticalAlign=middle;spacingLeft=4;spacingRight=4;overflow=hidden;points=[[0,0.5],[1,0.5]];portConstraint=eastwest;rotatable=0;whiteSpace=wrap;html=1;" vertex="1" parent="p307Y76RXilBDxocOR-L-18">
          <mxGeometry y="420" width="240" height="30" as="geometry" />
        </mxCell>
        <mxCell id="p307Y76RXilBDxocOR-L-33" value="&lt;span style=&quot;font-family: -apple-system, &amp;quot;system-ui&amp;quot;, &amp;quot;Helvetica Neue&amp;quot;, &amp;quot;Apple SD Gothic Neo&amp;quot;, sans-serif; font-size: 13px; background-color: rgb(255, 255, 255);&quot;&gt;너는 비밀번호 없는 와이파이처럼 아름다워&lt;/span&gt;" style="text;strokeColor=none;fillColor=none;align=left;verticalAlign=middle;spacingLeft=4;spacingRight=4;overflow=hidden;points=[[0,0.5],[1,0.5]];portConstraint=eastwest;rotatable=0;whiteSpace=wrap;html=1;" vertex="1" parent="p307Y76RXilBDxocOR-L-18">
          <mxGeometry y="450" width="240" height="30" as="geometry" />
        </mxCell>
        <mxCell id="p307Y76RXilBDxocOR-L-43" value="후후 넌 하늘에서 내려온 사람! 마이 엔젤! 움쪽쪽" style="text;strokeColor=none;fillColor=none;align=left;verticalAlign=middle;spacingLeft=4;spacingRight=4;overflow=hidden;points=[[0,0.5],[1,0.5]];portConstraint=eastwest;rotatable=0;whiteSpace=wrap;html=1;" vertex="1" parent="p307Y76RXilBDxocOR-L-18">
          <mxGeometry y="480" width="240" height="30" as="geometry" />
        </mxCell>
        <mxCell id="p307Y76RXilBDxocOR-L-35" value="고백" style="swimlane;fontStyle=0;childLayout=stackLayout;horizontal=1;startSize=30;horizontalStack=0;resizeParent=1;resizeParentMax=0;resizeLast=0;collapsible=1;marginBottom=0;whiteSpace=wrap;html=1;" vertex="1" parent="1">
          <mxGeometry x="400" y="30" width="140" height="150" as="geometry" />
        </mxCell>
        <mxCell id="p307Y76RXilBDxocOR-L-36" value="나랑 영원히 함께하자" style="text;strokeColor=none;fillColor=none;align=left;verticalAlign=middle;spacingLeft=4;spacingRight=4;overflow=hidden;points=[[0,0.5],[1,0.5]];portConstraint=eastwest;rotatable=0;whiteSpace=wrap;html=1;" vertex="1" parent="p307Y76RXilBDxocOR-L-35">
          <mxGeometry y="30" width="140" height="30" as="geometry" />
        </mxCell>
        <mxCell id="p307Y76RXilBDxocOR-L-37" value="넌 내꺼야" style="text;strokeColor=none;fillColor=none;align=left;verticalAlign=middle;spacingLeft=4;spacingRight=4;overflow=hidden;points=[[0,0.5],[1,0.5]];portConstraint=eastwest;rotatable=0;whiteSpace=wrap;html=1;" vertex="1" parent="p307Y76RXilBDxocOR-L-35">
          <mxGeometry y="60" width="140" height="30" as="geometry" />
        </mxCell>
        <mxCell id="p307Y76RXilBDxocOR-L-38" value="함께해 나랑 하악" style="text;strokeColor=none;fillColor=none;align=left;verticalAlign=middle;spacingLeft=4;spacingRight=4;overflow=hidden;points=[[0,0.5],[1,0.5]];portConstraint=eastwest;rotatable=0;whiteSpace=wrap;html=1;" vertex="1" parent="p307Y76RXilBDxocOR-L-35">
          <mxGeometry y="90" width="140" height="30" as="geometry" />
        </mxCell>
        <mxCell id="p307Y76RXilBDxocOR-L-44" value="나와...함께해 영원히!!(납치)" style="text;strokeColor=none;fillColor=none;align=left;verticalAlign=middle;spacingLeft=4;spacingRight=4;overflow=hidden;points=[[0,0.5],[1,0.5]];portConstraint=eastwest;rotatable=0;whiteSpace=wrap;html=1;" vertex="1" parent="p307Y76RXilBDxocOR-L-35">
          <mxGeometry y="120" width="140" height="30" as="geometry" />
        </mxCell>
        <mxCell id="p307Y76RXilBDxocOR-L-39" value="범죄같은플러팅" style="swimlane;fontStyle=0;childLayout=stackLayout;horizontal=1;startSize=30;horizontalStack=0;resizeParent=1;resizeParentMax=0;resizeLast=0;collapsible=1;marginBottom=0;whiteSpace=wrap;html=1;" vertex="1" parent="1">
          <mxGeometry x="400" y="230" width="140" height="120" as="geometry" />
        </mxCell>
        <mxCell id="p307Y76RXilBDxocOR-L-40" value="흐흐흐 어디좀 같이 갈까 귀염둥이?" style="text;strokeColor=none;fillColor=none;align=left;verticalAlign=middle;spacingLeft=4;spacingRight=4;overflow=hidden;points=[[0,0.5],[1,0.5]];portConstraint=eastwest;rotatable=0;whiteSpace=wrap;html=1;" vertex="1" parent="p307Y76RXilBDxocOR-L-39">
          <mxGeometry y="30" width="140" height="30" as="geometry" />
        </mxCell>
        <mxCell id="p307Y76RXilBDxocOR-L-41" value="Item 2" style="text;strokeColor=none;fillColor=none;align=left;verticalAlign=middle;spacingLeft=4;spacingRight=4;overflow=hidden;points=[[0,0.5],[1,0.5]];portConstraint=eastwest;rotatable=0;whiteSpace=wrap;html=1;" vertex="1" parent="p307Y76RXilBDxocOR-L-39">
          <mxGeometry y="60" width="140" height="30" as="geometry" />
        </mxCell>
        <mxCell id="p307Y76RXilBDxocOR-L-42" value="Item 3" style="text;strokeColor=none;fillColor=none;align=left;verticalAlign=middle;spacingLeft=4;spacingRight=4;overflow=hidden;points=[[0,0.5],[1,0.5]];portConstraint=eastwest;rotatable=0;whiteSpace=wrap;html=1;" vertex="1" parent="p307Y76RXilBDxocOR-L-39">
          <mxGeometry y="90" width="140" height="30" as="geometry" />
        </mxCell>
      </root>
    </mxGraphModel>
  </diagram>
</mxfile>
